<?xml version="1.0" encoding="UTF-8" standalone="no"?>
<!-- Created with Inkscape (http://www.inkscape.org/) -->

<svg
   xmlns:dc="http://purl.org/dc/elements/1.1/"
   xmlns:cc="http://creativecommons.org/ns#"
   xmlns:rdf="http://www.w3.org/1999/02/22-rdf-syntax-ns#"
   xmlns:svg="http://www.w3.org/2000/svg"
   xmlns="http://www.w3.org/2000/svg"
   xmlns:sodipodi="http://sodipodi.sourceforge.net/DTD/sodipodi-0.dtd"
   xmlns:inkscape="http://www.inkscape.org/namespaces/inkscape"
   width="64"
   viewBox="0 0 407.02595 64"
   id="svg4976"
   version="1.1"
   inkscape:version="0.91 r13725"
   sodipodi:docname="logo1.svg"
   height="64">
  <defs
     id="defs4978" />
  <sodipodi:namedview
     id="base"
     pagecolor="#ffffff"
     bordercolor="#FFD700"
     borderopacity="1.0"
     inkscape:pageopacity="0.0"
     inkscape:pageshadow="2"
     inkscape:zoom="7.9999995"
     inkscape:cx="20.646126"
     inkscape:cy="12.724821"
     inkscape:document-units="px"
     inkscape:current-layer="layer1"
     showgrid="false"
     inkscape:window-width="1313"
     inkscape:window-height="744"
     inkscape:window-x="53"
     inkscape:window-y="24"
     inkscape:window-maximized="1"
     showguides="true"
     inkscape:guide-bbox="true">
    <sodipodi:guide
       position="501.42043,3.005204"
       orientation="1,0"
       id="guide4144" />
  </sodipodi:namedview>
  <metadata
     id="metadata4981">
    <rdf:RDF>
      <cc:Work
         rdf:about="">
        <dc:format>image/svg+xml</dc:format>
        <dc:type
           rdf:resource="http://purl.org/dc/dcmitype/StillImage" />
        <dc:title />
      </cc:Work>
    </rdf:RDF>
  </metadata>
  <g
     inkscape:label="Layer 1"
     inkscape:groupmode="layer"
     id="layer1"
     transform="translate(0,-3494.0385)">
    <path
       style="fill:#ff9200;fill-opacity:1;stroke:#ff9200;stroke-width:0.87350851;stroke-miterlimit:4;stroke-dasharray:none;stroke-opacity:1"
       d="m 157.52423,3713.7432 c 3.84833,-2.1426 8.93561,-6.0076 14.54386,-6.1097 5.10455,-0.093 10.4442,3.0309 14.91465,5.2383 3.54451,1.7501 9.00866,6.8456 9.03248,15.099 l -46.7829,0.075 c 0.0222,-7.3996 4.9141,-12.4169 8.29191,-14.2975 z"
       id="path4144"
       inkscape:connector-curvature="0"
       sodipodi:nodetypes="cssccsc" />
    <path
       style="fill:#ffd700;fill-opacity:1;stroke:#ffd700;stroke-width:9.51966953;stroke-miterlimit:4;stroke-dasharray:none;stroke-opacity:1"
       d="M 124.13032,3684.6506 C 51.262173,3641.8609 8.3586112,3555.6493 29.665617,3472.1101 c 21.30699,-83.5392 94.458233,-141.9708 178.369293,-142.4775 64.1797,-0.3876 122.42075,33.1849 156.1875,86.2567 10.38121,16.3164 18.44915,34.4757 23.66518,54.058 22.18203,83.2765 -13.45033,171.8912 -85.86496,215.5581 -2.26243,-47.4195 -13.05843,-98.952 -49.98843,-140.8435 25.32034,-15.3572 34.22753,-33.2408 32.00879,-68.5636 l 85.29646,-51.8723 -96.05224,20.0228 c -50.09766,-63.0949 -142.47938,-21.5875 -131.92376,55.109 4.56552,30.8663 30.43277,45.0842 30.43277,45.0842 -11.62464,31.2469 -53.37681,42.6604 -54.0567,87.218 62.84931,-45.1393 2.04303,-14.8706 6.3908,52.9906 z"
       id="path4138"
       inkscape:connector-curvature="0"
       sodipodi:nodetypes="cssssccccccccc" />
    <path
       style="fill:none;fill-rule:evenodd;stroke:#e48200;stroke-width:9.36242008;stroke-linecap:butt;stroke-linejoin:miter;stroke-miterlimit:4;stroke-dasharray:none;stroke-opacity:1"
       d="m 144.19012,3728.4442 c -0.006,-30.9944 56.67011,-32.5436 56.70672,-0.01"
       id="path4909-9-9"
       inkscape:connector-curvature="0"
       sodipodi:nodetypes="cc" />
    <path
       style="fill:#ff9200;fill-opacity:1;stroke:#ff9200;stroke-width:0.87350857;stroke-miterlimit:4;stroke-dasharray:none;stroke-opacity:1"
       d="m 241.16065,3713.7379 c 3.84833,-2.1426 9.21668,-6.0076 14.82493,-6.1097 5.10455,-0.093 10.16313,3.0309 14.63358,5.2383 3.54451,1.7501 9.00866,6.8456 9.03248,15.099 l -46.7829,0.075 c 0.0222,-7.3996 4.9141,-12.4169 8.29191,-14.2975 z"
       id="path4144-7"
       inkscape:connector-curvature="0"
       sodipodi:nodetypes="cssccsc" />
    <path
       style="fill:none;fill-rule:evenodd;stroke:#e48200;stroke-width:9.36242008;stroke-linecap:butt;stroke-linejoin:miter;stroke-miterlimit:4;stroke-dasharray:none;stroke-opacity:1"
       d="m 227.82654,3728.4389 c -0.006,-30.9944 56.67011,-32.5436 56.70672,-0.01"
       id="path4909-9-9-7"
       inkscape:connector-curvature="0"
       sodipodi:nodetypes="cc" />
  </g>
</svg>
